<?xml version="1.0" standalone="no"?>
<!DOCTYPE svg PUBLIC "-//W3C//DTD SVG 20010904//EN"
 "http://www.w3.org/TR/2001/REC-SVG-20010904/DTD/svg10.dtd">
<svg version="1.0" xmlns="http://www.w3.org/2000/svg"
 width="400.000000pt" height="400.000000pt" viewBox="0 0 400.000000 400.000000"
 preserveAspectRatio="xMidYMid meet">
<metadata>
Created by potrace 1.11, written by Peter Selinger 2001-2013
</metadata>
<g transform="translate(0.000000,400.000000) scale(0.100000,-0.100000)"
fill="#000000" stroke="none">
<path d="M2005 3486 c-65 -24 -121 -73 -145 -128 -30 -71 -34 -113 -16 -173
l16 -50 -186 -186 -186 -187 53 -51 52 -51 185 186 c135 135 189 183 201 178
124 -51 275 8 324 127 20 50 19 157 -3 206 -20 46 -70 96 -119 119 -42 20
-134 25 -176 10z m154 -137 c19 -14 35 -38 42 -61 29 -108 -76 -200 -175 -153
-50 24 -70 58 -72 118 -1 43 3 53 32 82 50 51 117 56 173 14z"/>
<path d="M2339 3062 c-20 -20 -40 -43 -44 -51 -5 -9 48 -69 176 -197 169 -169
182 -185 172 -206 -6 -13 -11 -54 -11 -91 0 -55 5 -77 26 -116 88 -160 303
-175 413 -28 20 26 36 53 37 60 0 7 4 31 8 54 15 96 -42 204 -131 247 -67 31
-109 36 -175 19 l-54 -14 -181 181 c-99 99 -185 180 -190 180 -6 -1 -26 -17
-46 -38z m612 -445 c34 -29 49 -59 51 -100 2 -65 -57 -127 -123 -127 -58 0
-94 23 -119 75 -22 44 -22 48 -6 89 26 67 51 84 126 85 33 1 52 -5 71 -22z"/>
<path d="M1305 2696 c-88 -27 -127 -59 -166 -134 -65 -127 7 -296 141 -336 62
-19 100 -19 155 -2 l40 12 183 -183 c100 -101 184 -183 187 -183 3 0 28 22 55
49 l51 50 -186 185 c-102 102 -185 186 -185 188 0 2 6 23 14 48 25 84 6 165
-53 229 -63 68 -161 100 -236 77z m115 -126 c82 -43 89 -164 12 -219 -54 -38
-109 -32 -164 17 -45 41 -49 119 -10 170 33 42 111 58 162 32z"/>
<path d="M2425 2139 c-147 -147 -183 -179 -200 -174 -46 16 -157 14 -194 -3
-83 -37 -151 -138 -151 -226 0 -80 50 -166 125 -214 34 -23 51 -26 120 -27 87
0 135 19 182 74 50 57 65 103 60 177 -3 38 -8 78 -11 89 -5 16 29 55 178 204
l184 184 -48 48 c-27 27 -52 49 -57 49 -4 0 -89 -81 -188 -181z m-202 -319
c21 -23 27 -40 27 -75 0 -59 -13 -88 -50 -115 -83 -59 -200 4 -200 106 0 118
143 172 223 84z"/>
<path d="M1602 1325 c-52 -16 -108 -68 -140 -130 -21 -42 -25 -64 -26 -135 0
-75 3 -92 30 -145 44 -87 116 -131 229 -140 11 0 35 3 54 8 18 5 42 10 52 12
42 8 69 36 69 72 l0 35 -27 -18 c-60 -39 -79 -44 -147 -43 -60 2 -74 6 -109
33 -49 38 -76 100 -76 177 -2 116 51 198 140 219 62 15 137 0 185 -36 l34 -26
0 37 c0 20 -6 42 -13 49 -35 36 -179 53 -255 31z"/>
<path d="M1940 1060 l0 -270 175 0 175 0 0 30 0 30 -138 0 -139 0 0 95 c0 52
3 96 6 97 3 0 56 2 116 4 61 1 116 3 123 3 7 1 12 14 12 31 l0 30 -129 0 -129
0 2 77 1 78 130 0 130 0 3 33 3 32 -170 0 -171 0 0 -270z"/>
<path d="M2396 1068 c1 -145 2 -266 3 -270 0 -5 16 -8 35 -8 l33 0 -1 125 c0
69 1 125 4 125 3 0 62 -56 130 -125 l125 -125 50 0 50 0 -137 138 c-76 75
-141 140 -145 144 -3 4 29 40 73 80 43 40 104 97 133 125 l55 53 -49 0 c-42 0
-53 -5 -80 -32 -69 -73 -197 -189 -202 -184 -4 3 -6 53 -6 111 l0 105 -36 0
-36 0 1 -262z"/>
</g>
</svg>
